<svg height="512" viewBox="0 0 74 74" width="512" xmlns="http://www.w3.org/2000/svg"><g id="Numbers"><text fill="rgb(0,0,0)" font-family="ArialMT, Arial" font-size="18" transform="translate(31.995 -389.877)">2<tspan x="-5.005" y="124">12</tspan><tspan x="-5.005" y="248">22</tspan><tspan x="-5.005" y="372">32</tspan><tspan x="-5.005" y="496">42</tspan><tspan x="-5.005" y="620">52</tspan><tspan x="-5.005" y="744">62</tspan><tspan x="-5.005" y="868">72</tspan><tspan x="-5.005" y="992">82</tspan><tspan x="-5.005" y="1116">92</tspan><tspan x="-10.011" y="1240">102</tspan><tspan letter-spacing="-.074em" x="-9.343" y="1364">1</tspan><tspan x="-.668" y="1364">12</tspan><tspan x="-10.011" y="1488">122</tspan><tspan x="-10.011" y="1612">132</tspan><tspan x="-10.011" y="1736">142</tspan><tspan x="-10.011" y="1860">152</tspan><tspan x="-10.011" y="1984">162</tspan><tspan x="-10.011" y="2108">172</tspan><tspan x="-10.011" y="2232">182</tspan><tspan x="-10.011" y="2356">192</tspan><tspan x="-10.011" y="2480">202</tspan><tspan x="-10.011" y="2604">212</tspan><tspan x="-10.011" y="2728">222</tspan><tspan x="-10.011" y="2852">232</tspan><tspan x="-10.011" y="2976">242</tspan><tspan x="-10.011" y="3100">252</tspan><tspan x="-10.011" y="3224">262</tspan><tspan x="-10.011" y="3348">272</tspan><tspan x="-10.011" y="3472">282</tspan><tspan x="-10.011" y="3596">292</tspan></text></g><g id="Icons"><path d="m63 44.67a1 1 0 0 1 -1-1v-2.97a1 1 0 0 1 2 0v2.97a1 1 0 0 1 -1 1z"/><path d="m63 72h-52a1 1 0 0 1 -1-1v-68a1 1 0 0 1 1-1h36.75a1 1 0 0 1 .707.292l15.25 15.241a1 1 0 0 1 .293.707v15.46a1 1 0 0 1 -2 0v-15.045l-14.664-14.655h-35.336v66h50v-9.43a1 1 0 1 1 2 0v10.43a1 1 0 0 1 -1 1z"/><path d="m63 54.57a1 1 0 0 1 -1-1v-2.9a1 1 0 0 1 2 0v2.9a1 1 0 0 1 -1 1z"/><path d="m63 19.24h-15.25a1 1 0 0 1 -1-1v-15.24a1 1 0 0 1 2 0v14.24h14.25a1 1 0 0 1 0 2z"/><path d="m54.5 57h-35a1 1 0 0 1 0-2h35a1 1 0 0 1 0 2z"/><path d="m54.5 44.333h-35a1 1 0 0 1 0-2h35a1 1 0 0 1 0 2z"/><path d="m54.5 31.667h-35a1 1 0 0 1 0-2h35a1 1 0 0 1 0 2z"/><path d="m39 19h-19.5a1 1 0 0 1 0-2h19.5a1 1 0 0 1 0 2z"/></g></svg>